<?xml version="1.0" encoding="UTF-8" standalone="no"?>
<svg
   viewBox="0 0 39 45.000001"
   version="1.1"
   id="svg4"
   sodipodi:docname="TreeIcon.svg"
   inkscape:version="1.1 (c68e22c387, 2021-05-23)"
   width="39"
   height="45"
   xmlns:inkscape="http://www.inkscape.org/namespaces/inkscape"
   xmlns:sodipodi="http://sodipodi.sourceforge.net/DTD/sodipodi-0.dtd"
   xmlns="http://www.w3.org/2000/svg"
   xmlns:svg="http://www.w3.org/2000/svg">
  <defs
     id="defs8" />
  <sodipodi:namedview
     id="namedview6"
     pagecolor="#ffffff"
     bordercolor="#666666"
     borderopacity="1.0"
     inkscape:pageshadow="2"
     inkscape:pageopacity="0.0"
     inkscape:pagecheckerboard="0"
     showgrid="false"
     inkscape:zoom="8.3195533"
     inkscape:cx="-18.45051"
     inkscape:cy="30.470386"
     inkscape:window-width="2560"
     inkscape:window-height="1017"
     inkscape:window-x="-8"
     inkscape:window-y="-8"
     inkscape:window-maximized="1"
     inkscape:current-layer="svg4" />
  <!-- Font Awesome Free 5.15.4 by @fontawesome - https://fontawesome.com License - https://fontawesome.com/license/free (Icons: CC BY 4.0, Fonts: SIL OFL 1.1, Code: MIT License) -->
  <path
     d="m 26.592716,35.233458 v 7.252559 c 0,1.334925 1.082595,2.41752 2.417519,2.41752 h 7.25256 c 1.334924,0 2.41752,-1.082595 2.41752,-2.41752 v -7.252559 c 0,-1.334924 -1.082596,-2.41752 -2.41752,-2.41752 h -7.25256 c -1.334924,0 -2.417519,1.082596 -2.417519,2.41752 z m -6.0438,1.81314 V 26.173767 h 3.62628 v -3.626279 h -3.62628 V 11.892592 h 3.62628 V 8.2663119 h -4.35078 c 0,-2.3691565 -0.739829,-3.3014202 -2.882861,-3.2990896 H 14.012712 V 2.4175196 C 14.012712,1.0825956 12.930116,0 11.595192,0 H 2.4175199 C 1.0825956,0 0,1.0825956 0,2.4175196 v 8.3987764 c 0,1.334924 1.0825956,2.41752 2.4175199,2.41752 h 9.1776721 c 1.334924,0 2.41752,-1.082596 2.41752,-2.41752 V 8.593502 h 2.909926 v 29.177596 c 0,1.600096 1.301682,2.90178 2.901778,2.90178 h 4.35078 v -3.62628 z m 6.0438,-16.312251 v 7.25256 c 0,1.334921 1.082595,2.417517 2.417519,2.417517 h 7.25256 c 1.334924,0 2.41752,-1.082596 2.41752,-2.417517 v -7.25256 c 0,-1.334924 -1.082596,-2.417519 -2.41752,-2.417519 h -7.25256 c -1.334924,0 -2.417519,1.082595 -2.417519,2.417519 z m 0,-14.2811751 v 7.2525601 c 0,1.334924 1.082595,2.417519 2.417519,2.417519 h 7.25256 c 1.334924,0 2.41752,-1.082595 2.41752,-2.417519 V 6.4531719 c 0,-1.3349242 -1.082596,-2.4175199 -2.41752,-2.4175199 h -7.25256 c -1.334924,0 -2.417519,1.0825957 -2.417519,2.4175199 z"
     id="path924"
     sodipodi:nodetypes="ssssssssscccccccccccssssssssccsscccssssssssssssssssss"
     inkscape:export-filename="C:\Users\glato\Desktop\treeVert.png"
     inkscape:export-xdpi="7.3125005"
     inkscape:export-ydpi="7.3125005"
     style="stroke-width:0.0755474" />
</svg>
